HIERARCHY
ROOT pelvis
{
	OFFSET 0.000000 0.719631 -0.000000
	CHANNELS 6 Xposition Yposition Zposition Xrotation Yrotation Zrotation
	JOINT spine
	{
		OFFSET 0.000000 0.000000 0.000000
		CHANNELS 6 Xposition Yposition Zposition Xrotation Yrotation Zrotation
		JOINT spine.001
		{
			OFFSET 0.000000 0.232063 0.012162
			CHANNELS 3 Xrotation Yrotation Zrotation
			JOINT neck
			{
				OFFSET 0.000000 0.230649 -0.028320
				CHANNELS 6 Xposition Yposition Zposition Xrotation Yrotation Zrotation
				JOINT face
				{
					OFFSET 0.000000 0.176459 -0.003080
					CHANNELS 6 Xposition Yposition Zposition Xrotation Yrotation Zrotation
					End Site
					{
						OFFSET 0.000000 -0.007071 0.030870
					}
				}
			}
			JOINT shoulder.L
			{
				OFFSET 0.000000 0.230649 -0.028320
				CHANNELS 6 Xposition Yposition Zposition Yrotation Xrotation Zrotation
				JOINT upper_arm.L
				{
					OFFSET 0.163250 0.000000 0.000000
					CHANNELS 6 Xposition Yposition Zposition Xrotation Yrotation Zrotation
					JOINT forearm.L
					{
						OFFSET 0.252367 0.000882 -0.000106
						CHANNELS 6 Xposition Yposition Zposition Xrotation Yrotation Zrotation
						End Site
						{
							OFFSET 0.221264 -0.001215 0.003765
						}
					}
				}
			}
			JOINT shoulder.R
			{
				OFFSET 0.000000 0.230649 -0.028320
				CHANNELS 6 Xposition Yposition Zposition Yrotation Xrotation Zrotation
				JOINT upper_arm.R
				{
					OFFSET -0.163250 0.000000 0.000000
					CHANNELS 6 Xposition Yposition Zposition Xrotation Yrotation Zrotation
					JOINT forearm.R
					{
						OFFSET -0.250191 0.000882 -0.000106
						CHANNELS 6 Xposition Yposition Zposition Xrotation Yrotation Zrotation
						End Site
						{
							OFFSET -0.215729 -0.001215 0.003668
						}
					}
				}
			}
		}
	}
	JOINT pelvis.L
	{
		OFFSET 0.000000 0.000000 0.000000
		CHANNELS 6 Xposition Yposition Zposition Yrotation Xrotation Zrotation
		End Site
		{
			OFFSET 0.096594 0.000000 0.000000
		}
	}
	JOINT pelvis.R
	{
		OFFSET 0.000000 0.000000 0.000000
		CHANNELS 6 Xposition Yposition Zposition Yrotation Xrotation Zrotation
		End Site
		{
			OFFSET -0.096594 0.000000 0.000000
		}
	}
	JOINT thigh.L
	{
		OFFSET 0.096594 0.000000 0.000000
		CHANNELS 6 Xposition Yposition Zposition Xrotation Yrotation Zrotation
		JOINT shin.L
		{
			OFFSET 0.017325 -0.330572 0.000000
			CHANNELS 6 Xposition Yposition Zposition Xrotation Yrotation Zrotation
			JOINT foot.L
			{
				OFFSET 0.016916 -0.322768 0.000000
				CHANNELS 6 Xposition Yposition Zposition Xrotation Yrotation Zrotation
				End Site
				{
					OFFSET 0.014533 -0.062224 0.148181
				}
			}
		}
	}
	JOINT thigh.R
	{
		OFFSET -0.096594 0.000000 0.000000
		CHANNELS 6 Xposition Yposition Zposition Xrotation Yrotation Zrotation
		JOINT shin.R
		{
			OFFSET -0.017218 -0.328541 0.000000
			CHANNELS 6 Xposition Yposition Zposition Xrotation Yrotation Zrotation
			JOINT foot.R
			{
				OFFSET -0.017084 -0.325985 0.000000
				CHANNELS 6 Xposition Yposition Zposition Xrotation Yrotation Zrotation
				End Site
				{
					OFFSET -0.015339 -0.065674 0.156396
				}
			}
		}
	}
}
MOTION
Frames: 6
Frame Time: 0.041667
0.029111 -0.009636 0.042855 0.000000 -13.672798 0.000005 -0.000000 -0.000000 0.000000 -10.661352 0.258577 -1.765734 10.002606 1.558059 -0.191346 -0.000000 0.230649 -0.028320 19.619905 1.196196 0.550167 -0.000000 0.176459 -0.003080 -5.950887 -0.000003 -0.000000 -0.000000 0.230649 -0.028320 0.062829 -0.000281 0.512084 0.163250 0.000000 0.000000 1.543894 1.904006 -79.931095 0.252367 0.000882 -0.000106 -1.164326 -13.874107 -10.337219 -0.000000 0.230649 -0.028320 0.056913 -0.000230 0.463887 -0.163250 -0.000000 -0.000000 0.313077 -0.438912 77.938141 -0.250191 0.000882 -0.000106 -1.500953 16.749765 10.731310 0.000000 0.000000 -0.000000 -0.000026 -0.000001 -1.546132 0.000000 0.000000 -0.000000 -0.000002 -0.000000 -1.546132 0.096558 -0.002606 -0.000000 10.038313 -0.146164 -7.664089 0.017325 -0.330572 0.000000 0.472093 0.055244 7.345976 0.016916 -0.322768 0.000000 -8.274135 14.589714 8.165651 -0.096558 0.002606 -0.000000 6.180070 -0.294313 0.552141 -0.017218 -0.328541 0.000000 1.173573 -0.077087 -1.516482 -0.017084 -0.325985 0.000000 -10.547757 -0.367585 -1.274668 
0.029351 -0.010877 0.042766 0.000000 -13.539405 0.000005 -0.000000 -0.000000 0.000000 -10.779779 0.256849 -1.741396 10.003749 1.875583 -0.230381 0.000000 0.230649 -0.028320 19.852754 -0.085215 0.505958 0.000000 0.176459 -0.003080 -5.893152 0.000005 0.000000 -0.000000 0.230649 -0.028320 0.067552 -0.000320 0.550931 0.163250 -0.000000 -0.000000 1.209832 1.501373 -79.976174 0.252367 0.000882 -0.000106 -1.180750 -14.020431 -10.357051 -0.000000 0.230649 -0.028320 0.061678 -0.000267 0.502692 -0.163249 -0.000000 0.000000 0.285383 -0.402222 78.285798 -0.250191 0.000882 -0.000106 -1.367566 16.366364 9.996900 0.000000 0.000000 -0.000000 -0.000026 -0.000001 -1.853150 -0.000000 0.000000 -0.000000 0.000003 0.000000 -1.853106 0.096543 -0.003124 0.000000 10.110288 -0.136482 -7.542692 0.017325 -0.330572 0.000000 0.616686 0.071123 7.155943 0.016916 -0.322768 0.000000 -8.930929 14.088488 8.083476 -0.096543 0.003124 -0.000000 6.339479 -0.311145 0.385992 -0.017218 -0.328541 0.000000 0.839291 -0.053631 -1.312279 -0.017084 -0.325985 0.000000 -11.596064 -0.000172 -1.192099 
0.029578 -0.011804 0.042025 0.000000 -13.307555 0.000005 -0.000000 -0.000000 0.000000 -10.864316 0.259310 -1.749162 10.003872 1.889317 -0.232057 0.000000 0.230649 -0.028320 20.123578 -1.092485 0.463730 0.000000 0.176459 -0.003080 -5.930245 -0.000001 0.000001 0.000000 0.230649 -0.028320 0.069027 -0.000335 0.562527 0.163250 0.000000 -0.000000 0.952152 1.191431 -80.003044 0.252367 0.000882 -0.000106 -1.207420 -14.340057 -10.314623 0.000000 0.230649 -0.028320 0.063148 -0.000280 0.514329 -0.163250 -0.000000 0.000000 0.257282 -0.365872 78.564388 -0.250191 0.000882 -0.000106 -1.281558 16.176444 9.459924 0.000000 0.000000 -0.000000 -0.000053 -0.000001 -2.054900 -0.000000 0.000000 -0.000000 0.000003 0.000000 -2.054935 0.096532 -0.003464 -0.000000 10.071166 -0.121754 -7.381624 0.017325 -0.330572 0.000000 0.771205 0.087744 6.980152 0.016916 -0.322768 0.000000 -9.412540 13.584988 7.949807 -0.096532 0.003464 -0.000000 6.455119 -0.322163 0.291852 -0.017218 -0.328541 0.000000 0.528967 -0.033189 -1.183091 -0.017084 -0.325985 0.000000 -12.276097 0.201842 -1.154457 
0.029879 -0.012345 0.040322 0.000000 -12.933301 0.000005 -0.000000 -0.000000 0.000000 -10.871001 0.266237 -1.795160 10.002436 1.490163 -0.183004 -0.000000 0.230649 -0.028320 20.354872 -1.760380 0.412026 -0.000000 0.176459 -0.003080 -6.058995 -0.000001 0.000000 -0.000000 0.230649 -0.028320 0.064773 -0.000294 0.527407 0.163250 0.000000 -0.000000 0.738495 0.935298 -79.985545 0.252367 0.000882 -0.000106 -1.245572 -14.907528 -10.164115 -0.000000 0.230649 -0.028320 0.058814 -0.000244 0.479209 -0.163249 -0.000000 0.000000 0.169025 -0.256360 78.795357 -0.250191 0.000882 -0.000106 -1.225358 16.078489 9.082722 -0.000000 0.000000 -0.000000 0.000050 0.000001 -2.131637 -0.000000 0.000000 -0.000000 0.000002 0.000000 -2.131637 0.096527 -0.003593 -0.000000 9.876174 -0.102494 -7.186192 0.017325 -0.330572 0.000000 0.934120 0.104971 6.822552 0.016916 -0.322768 0.000000 -9.645217 13.078026 7.747941 -0.096527 0.003593 -0.000000 6.533624 -0.325995 0.293426 -0.017218 -0.328541 0.000000 0.206928 -0.012933 -1.153839 -0.017084 -0.325985 0.000000 -12.500325 0.142086 -1.211479 
0.030428 -0.012656 0.037795 0.000000 -12.496307 0.000005 -0.000000 0.000000 0.000000 -10.773422 0.271617 -1.842157 10.000824 0.844803 -0.103734 -0.000000 0.230649 -0.028320 20.414701 -2.329069 0.331032 -0.000000 0.176459 -0.003080 -6.188110 -0.000002 0.000002 -0.000000 0.230649 -0.028320 0.054189 -0.000208 0.440978 0.163250 -0.000000 0.000000 0.486532 0.633455 -79.915693 0.252367 0.000882 -0.000106 -1.286523 -15.616241 -9.937660 -0.000000 0.230649 -0.028320 0.048278 -0.000162 0.392821 -0.163250 -0.000000 -0.000000 -0.013159 -0.032994 79.022680 -0.250191 0.000882 -0.000106 -1.170771 15.896058 8.770139 0.000000 0.000000 -0.000000 0.000082 0.000001 -2.133299 0.000000 0.000000 -0.000000 0.000000 0.000000 -2.133264 0.096527 -0.003596 -0.000000 9.599931 -0.085201 -7.014504 0.017325 -0.330572 0.000000 1.029864 0.114513 6.688461 0.016916 -0.322768 0.000000 -9.671957 12.635596 7.526860 -0.096527 0.003596 -0.000000 6.603123 -0.326446 0.345578 -0.017218 -0.328541 0.000000 -0.181911 0.011422 -1.185342 -0.017084 -0.325985 0.000000 -12.399693 -0.115642 -1.343102 
0.031300 -0.012915 0.034771 0.000000 -12.184847 0.000005 -0.000000 -0.000000 -0.000000 -10.595681 0.268018 -1.837584 10.000092 0.258951 -0.031788 -0.000000 0.230649 -0.028320 20.269211 -3.219060 0.215490 0.000000 0.176459 -0.003080 -6.229219 -0.000001 0.000002 -0.000000 0.230649 -0.028320 0.038345 -0.000103 0.312230 0.163250 -0.000000 -0.000000 0.195819 0.284423 -79.805966 0.252367 0.000882 -0.000106 -1.324677 -16.264373 -9.755149 -0.000000 0.230649 -0.028320 0.032417 -0.000075 0.264072 -0.163249 -0.000000 0.000000 -0.234971 0.236842 79.231014 -0.250191 0.000882 -0.000106 -1.126841 15.665228 8.568950 0.000000 0.000000 -0.000000 -0.000091 -0.000001 -2.104995 -0.000000 0.000000 -0.000000 0.000000 0.000000 -2.104960 0.096528 -0.003548 -0.000000 9.393359 -0.076879 -6.935659 0.017325 -0.330572 0.000000 0.915469 0.101096 6.602303 0.016916 -0.322768 0.000000 -9.580525 12.380123 7.373384 -0.096528 0.003548 -0.000000 6.666519 -0.328247 0.368669 -0.017218 -0.328541 0.000000 -0.663513 0.041706 -1.193166 -0.017084 -0.325985 0.000000 -12.132231 -0.344214 -1.439222 
